{"asset":{"version":"2.0","generator":"Blockbench 5.0.7 glTF exporter"},"scenes":[{"nodes":[0],"name":"blockbench_export"}],"scene":0,"nodes":[{"translation":[0.03125,0,0.03125],"name":"sphere","mesh":0}],"bufferViews":[{"buffer":0,"byteOffset":0,"byteLength":3648,"target":34962,"byteStride":12},{"buffer":0,"byteOffset":3648,"byteLength":3648,"target":34962,"byteStride":12},{"buffer":0,"byteOffset":7296,"byteLength":2432,"target":34962,"byteStride":8},{"buffer":0,"byteOffset":9728,"byteLength":840,"target":34963}],"buffers":[{"byteLength":10568,"uri":"data:application/octet-stream;base64,"}],"accessors":[{"bufferView":0,"componentType":5126,"count":304,"max":[0.3125,0.7071067690849304,0.32544416189193726],"min":[-0.3125,-0.3125,-0.3125],"type":"VEC3"},{"bufferView":1,"componentType":5126,"count":304,"max":[1,1,1],"min":[-1,-0.9659258127212524,-1],"type":"VEC3"},{"bufferView":2,"componentType":5126,"count":304,"max":[0.8959313631057739,0.9375],"min":[0,0],"type":"VEC2"},{"bufferView":3,"componentType":5123,"count":420,"max":[303],"min":[0],"type":"SCALAR"}],"materials":[{"pbrMetallicRoughness":{"metallicFactor":0,"roughnessFactor":1,"baseColorTexture":{"index":0}},"alphaMode":"MASK","alphaCutoff":0.05,"doubleSided":true}],"textures":[{"sampler":0,"source":0,"name":"texture"}],"samplers":[{"magFilter":9728,"minFilter":9728,"wrapS":33071,"wrapT":33071}],"images":[{"mimeType":"image/png","name":"texture.png","uri":"texture.png"}],"meshes":[{"primitives":[{"mode":4,"attributes":{"POSITION":0,"NORMAL":1,"TEXCOORD_0":2},"indices":3,"material":0}]}]}